<?xml version="1.0" encoding="UTF-8"?>
<svg xmlns="http://www.w3.org/2000/svg" xmlns:xlink="http://www.w3.org/1999/xlink" width="24px" height="18px" viewBox="0 0 23 18" version="1.1">
<g id="surface1">
<path style=" stroke:none;fill-rule:nonzero;fill:rgb(0%,0%,0%);fill-opacity:1;" d="M 2.007812 0 L 15.714844 0 C 16.261719 0 16.757812 0.234375 17.121094 0.605469 C 17.484375 0.976562 17.710938 1.496094 17.710938 2.054688 L 17.710938 4.277344 C 17.53125 4.328125 17.136719 4.421875 16.636719 4.539062 L 16.636719 2.054688 C 16.636719 1.796875 16.53125 1.558594 16.363281 1.386719 C 16.195312 1.214844 15.96875 1.105469 15.714844 1.105469 L 2.007812 1.105469 C 1.761719 1.105469 1.542969 1.203125 1.378906 1.359375 L 1.355469 1.382812 C 1.1875 1.554688 1.085938 1.792969 1.085938 2.054688 L 1.085938 8.535156 C 2.179688 7.582031 3.484375 6.511719 4.390625 5.730469 C 4.585938 5.554688 4.878906 5.558594 5.070312 5.726562 C 5.109375 5.761719 5.140625 5.800781 5.171875 5.839844 L 7.734375 10.207031 L 8.964844 7.074219 C 9.046875 6.636719 9.546875 6.492188 9.851562 6.785156 L 10.507812 7.429688 L 10.414062 8.839844 L 9.847656 8.28125 L 8.492188 11.539062 C 8.429688 12 7.871094 12.175781 7.570312 11.816406 L 4.683594 6.925781 L 1.085938 10.035156 L 1.085938 14.175781 C 1.085938 14.4375 1.191406 14.675781 1.355469 14.847656 C 1.523438 15.019531 1.753906 15.125 2.007812 15.125 L 10.003906 15.125 L 9.957031 15.785156 C 9.957031 15.929688 10.035156 16.0625 10.160156 16.132812 L 10.367188 16.230469 L 2.007812 16.230469 C 1.464844 16.230469 0.960938 15.996094 0.597656 15.625 C 0.238281 15.25 0.0117188 14.738281 0.0117188 14.175781 L 0.0117188 2.054688 C 0.0117188 1.488281 0.234375 0.976562 0.597656 0.601562 L 0.632812 0.570312 C 0.992188 0.214844 1.476562 0 2.007812 0 Z M 18.46875 11.699219 C 18.734375 11.566406 19 11.433594 19.261719 11.304688 C 19.527344 11.171875 19.792969 11.039062 20.054688 10.910156 C 20.367188 10.753906 20.621094 10.679688 20.820312 10.679688 C 21.019531 10.675781 21.1875 10.730469 21.332031 10.839844 C 21.472656 10.949219 21.585938 11.101562 21.667969 11.296875 C 21.753906 11.496094 21.808594 11.714844 21.839844 11.96875 C 21.886719 12.359375 21.878906 12.683594 21.816406 12.945312 C 21.753906 13.207031 21.648438 13.457031 21.503906 13.691406 C 21.355469 13.925781 21.191406 14.117188 21.007812 14.265625 C 20.757812 14.472656 20.523438 14.636719 20.316406 14.75 C 20.019531 14.910156 19.726562 15.070312 19.429688 15.230469 C 19.136719 15.390625 18.839844 15.550781 18.542969 15.710938 C 18.523438 15.050781 18.503906 14.386719 18.492188 13.71875 C 18.480469 13.046875 18.472656 12.375 18.46875 11.699219 Z M 19.574219 12.054688 C 19.589844 12.414062 19.605469 12.769531 19.625 13.125 C 19.640625 13.476562 19.660156 13.832031 19.683594 14.183594 C 19.777344 14.132812 19.871094 14.082031 19.964844 14.03125 C 20.210938 13.902344 20.378906 13.785156 20.480469 13.675781 C 20.574219 13.566406 20.648438 13.429688 20.691406 13.265625 C 20.738281 13.101562 20.746094 12.867188 20.722656 12.566406 C 20.6875 12.164062 20.605469 11.921875 20.472656 11.835938 C 20.339844 11.746094 20.132812 11.773438 19.847656 11.917969 C 19.753906 11.964844 19.664062 12.011719 19.574219 12.054688 Z M 14.078125 11.9375 C 13.886719 11.839844 13.695312 11.742188 13.503906 11.644531 C 13.308594 11.550781 13.117188 11.453125 12.925781 11.359375 C 13.035156 11.085938 13.230469 10.90625 13.515625 10.832031 C 13.65625 10.792969 13.824219 10.78125 14.019531 10.800781 C 14.214844 10.820312 14.4375 10.871094 14.6875 10.949219 C 14.976562 11.042969 15.222656 11.148438 15.429688 11.265625 C 15.636719 11.382812 15.800781 11.511719 15.925781 11.65625 C 16.175781 11.9375 16.296875 12.234375 16.285156 12.53125 C 16.277344 12.707031 16.21875 12.84375 16.109375 12.945312 C 16 13.046875 15.835938 13.109375 15.625 13.132812 C 15.792969 13.234375 15.921875 13.332031 16.011719 13.417969 C 16.15625 13.558594 16.265625 13.710938 16.339844 13.875 C 16.417969 14.042969 16.453125 14.21875 16.445312 14.40625 C 16.4375 14.636719 16.363281 14.832031 16.21875 14.988281 C 16.074219 15.140625 15.871094 15.214844 15.613281 15.210938 C 15.480469 15.210938 15.332031 15.1875 15.164062 15.140625 C 14.996094 15.09375 14.808594 15.023438 14.601562 14.933594 C 14.195312 14.757812 13.878906 14.578125 13.648438 14.398438 C 13.417969 14.222656 13.234375 14.027344 13.089844 13.816406 C 12.945312 13.605469 12.839844 13.375 12.769531 13.117188 C 12.976562 13.175781 13.183594 13.238281 13.390625 13.296875 C 13.597656 13.355469 13.804688 13.414062 14.011719 13.472656 C 14.050781 13.703125 14.117188 13.878906 14.214844 14 C 14.316406 14.125 14.441406 14.21875 14.601562 14.285156 C 14.765625 14.355469 14.90625 14.363281 15.019531 14.304688 C 15.136719 14.246094 15.195312 14.128906 15.203125 13.953125 C 15.210938 13.773438 15.164062 13.613281 15.0625 13.472656 C 14.960938 13.332031 14.820312 13.226562 14.636719 13.15625 C 14.542969 13.121094 14.40625 13.089844 14.238281 13.066406 C 14.269531 12.824219 14.300781 12.582031 14.335938 12.339844 C 14.402344 12.371094 14.453125 12.394531 14.492188 12.410156 C 14.652344 12.46875 14.785156 12.472656 14.894531 12.421875 C 15.003906 12.371094 15.0625 12.285156 15.070312 12.160156 C 15.074219 12.042969 15.035156 11.933594 14.960938 11.835938 C 14.882812 11.734375 14.773438 11.664062 14.636719 11.613281 C 14.492188 11.566406 14.371094 11.5625 14.277344 11.609375 C 14.1875 11.652344 14.121094 11.761719 14.078125 11.9375 Z M 11.898438 8.019531 L 17.214844 6.195312 C 17.277344 6.175781 17.34375 6.175781 17.402344 6.195312 L 22.785156 8.097656 C 22.917969 8.140625 23 8.273438 22.988281 8.414062 C 22.988281 8.417969 22.988281 8.425781 22.988281 8.433594 L 22.988281 14.882812 C 22.988281 14.996094 22.925781 15.105469 22.824219 15.15625 L 17.476562 17.957031 C 17.433594 17.984375 17.378906 18 17.324219 18 C 17.265625 18 17.207031 17.980469 17.160156 17.949219 L 11.804688 15.070312 C 11.707031 15.019531 11.644531 14.914062 11.644531 14.800781 L 11.644531 8.324219 C 11.644531 8.171875 11.753906 8.039062 11.898438 8.019531 Z M 17.027344 17.1875 L 17.027344 11.019531 L 12.238281 8.785156 L 12.238281 14.617188 Z M 22.390625 8.855469 L 17.621094 11.023438 L 17.621094 17.195312 L 22.390625 14.695312 Z M 17.304688 6.808594 L 12.777344 8.363281 L 17.324219 10.488281 L 21.875 8.421875 Z M 9.785156 2.527344 C 10.230469 2.527344 10.632812 2.714844 10.921875 3.011719 C 11.214844 3.3125 11.394531 3.726562 11.394531 4.183594 C 11.394531 4.640625 11.214844 5.054688 10.921875 5.355469 C 10.632812 5.65625 10.230469 5.839844 9.785156 5.839844 C 9.34375 5.839844 8.941406 5.65625 8.648438 5.355469 C 8.359375 5.054688 8.179688 4.640625 8.179688 4.183594 C 8.179688 3.726562 8.359375 3.3125 8.648438 3.011719 C 8.941406 2.714844 9.34375 2.527344 9.785156 2.527344 Z M 10.277344 3.679688 C 10.144531 3.546875 9.96875 3.46875 9.785156 3.46875 C 9.59375 3.46875 9.421875 3.550781 9.296875 3.679688 C 9.164062 3.8125 9.09375 3.996094 9.09375 4.183594 C 9.09375 4.382812 9.171875 4.5625 9.296875 4.691406 C 9.425781 4.824219 9.601562 4.898438 9.785156 4.898438 C 9.976562 4.898438 10.152344 4.816406 10.277344 4.691406 C 10.402344 4.5625 10.480469 4.382812 10.480469 4.183594 C 10.480469 3.988281 10.402344 3.808594 10.277344 3.679688 Z M 10.277344 3.679688 "/>
</g>
</svg>
