<?xml version="1.0" standalone="no"?>
<!DOCTYPE svg PUBLIC "-//W3C//DTD SVG 20010904//EN"
 "http://www.w3.org/TR/2001/REC-SVG-20010904/DTD/svg10.dtd">
<svg version="1.0" xmlns="http://www.w3.org/2000/svg"
 width="478.000000pt" height="522.000000pt" viewBox="0 0 478.000000 522.000000"
 preserveAspectRatio="xMidYMid meet">

<g transform="translate(0.000000,522.000000) scale(0.100000,-0.100000)"
fill="#000000" stroke="none">
<path d="M4065 4359 c-521 -200 -888 -300 -1106 -299 -91 1 -150 28 -353 164
-282 189 -321 198 -596 142 -289 -60 -831 -204 -1303 -346 -25 -8 -29 -5 -51
38 -29 57 -68 95 -93 90 -26 -4 -53 -65 -53 -118 0 -50 19 -119 79 -290 40
-116 99 -286 476 -1390 114 -333 259 -756 322 -940 63 -184 143 -418 178 -520
221 -647 286 -834 296 -846 6 -7 31 -21 55 -30 43 -16 46 -16 62 0 38 38 6
212 -85 461 -29 81 -142 413 -393 1160 -98 292 -181 537 -185 546 -5 14 29 31
197 97 465 185 766 268 1087 301 l94 10 72 -33 c39 -18 127 -68 196 -111 155
-98 249 -143 322 -155 57 -9 137 -1 187 18 14 5 59 15 100 21 149 24 393 94
799 228 l413 137 -6 67 c-10 102 -39 208 -101 379 -31 85 -77 223 -102 305
-24 83 -87 283 -140 445 -52 162 -113 350 -134 418 -22 67 -43 122 -47 121 -4
0 -88 -32 -187 -70z m185 -65 c12 -36 20 -67 18 -70 -3 -2 -10 15 -17 38 -7
23 -17 52 -21 64 l-9 22 -52 -19 c-28 -11 -53 -18 -55 -16 -4 4 92 45 108 46
3 1 16 -29 28 -65z m-1900 20 c23 -9 39 -18 37 -20 -2 -2 -28 6 -58 17 -45 18
-68 20 -139 16 l-85 -5 65 12 c68 13 110 8 180 -20z m-257 -1 c-7 -2 -21 -2
-30 0 -10 3 -4 5 12 5 17 0 24 -2 18 -5z m-66 -9 c-3 -3 -12 -4 -19 -1 -8 3
-5 6 6 6 11 1 17 -2 13 -5z m2073 3 c0 -7 -141 -59 -146 -55 -2 3 26 17 63 31
69 26 83 30 83 24z m-2117 -14 c-7 -2 -19 -2 -25 0 -7 3 -2 5 12 5 14 0 19 -2
13 -5z m-118 -24 c-44 -10 -87 -18 -95 -18 -23 2 122 37 150 37 14 0 -11 -8
-55 -19z m744 -107 c198 -130 189 -124 169 -118 -14 4 -93 55 -364 234 -10 7
-4 5 14 -4 19 -8 100 -59 181 -112z m-862 82 c-3 -3 -12 -4 -19 -1 -8 3 -5 6
6 6 11 1 17 -2 13 -5z m-40 -10 c-3 -3 -12 -4 -19 -1 -8 3 -5 6 6 6 11 1 17
-2 13 -5z m2203 2 c0 -6 -151 -59 -155 -54 -3 2 28 16 68 31 73 26 87 30 87
23z m-2320 -32 c-47 -13 -92 -23 -100 -23 -21 1 140 47 165 48 11 0 -18 -11
-65 -25z m-135 -34 c-11 -5 -27 -9 -35 -9 -9 0 -8 4 5 9 11 5 27 9 35 9 9 0 8
-4 -5 -9z m2283 5 c-7 -8 -180 -65 -192 -64 -11 1 171 67 188 68 5 1 7 -1 4
-4z m-2406 -40 c-69 -22 -150 -41 -127 -30 20 10 171 53 185 53 8 0 -18 -11
-58 -23z m3007 -129 c0 -6 -11 20 -25 58 -13 39 -24 75 -23 80 0 6 11 -20 25
-58 13 -39 24 -75 23 -80z m-812 98 c-3 -3 -12 -4 -19 -1 -8 3 -5 6 6 6 11 1
17 -2 13 -5z m-2352 -14 c-11 -5 -27 -9 -35 -9 -9 0 -8 4 5 9 11 5 27 9 35 9
9 0 8 -4 -5 -9z m2230 -21 c-33 -10 -78 -21 -100 -24 -22 -3 -2 6 45 19 101
29 140 32 55 5z m-2315 -3 c-20 -8 -51 -16 -70 -19 -23 -4 -17 0 20 13 61 21
105 26 50 6z m-468 -51 c16 -27 73 -185 127 -350 55 -165 136 -403 181 -530
138 -387 333 -956 685 -2001 117 -347 222 -649 234 -672 30 -59 69 -184 81
-259 17 -105 -6 -133 -55 -69 -18 23 -137 367 -389 1122 -200 599 -493 1471
-650 1938 -157 467 -286 856 -286 863 0 9 8 13 23 11 15 -2 31 -19 49 -53z
m2635 19 c-3 -3 -12 -4 -19 -1 -8 3 -5 6 6 6 11 1 17 -2 13 -5z m-2310 -10
c-3 -3 -12 -4 -19 -1 -8 3 -5 6 6 6 11 1 17 -2 13 -5z m1950 -16 c27 -6 81 -9
135 -5 104 7 111 2 15 -12 -69 -10 -177 5 -214 29 -17 11 -17 11 1 6 10 -4 39
-11 63 -18z m316 15 c-7 -2 -19 -2 -25 0 -7 3 -2 5 12 5 14 0 19 -2 13 -5z
m-50 -10 c-7 -2 -19 -2 -25 0 -7 3 -2 5 12 5 14 0 19 -2 13 -5z m-2313 -17
c-20 -8 -51 -16 -70 -19 -23 -4 -17 0 20 13 61 21 105 26 50 6z m-110 -30 c0
-2 -9 -6 -20 -9 -11 -3 -18 -1 -14 4 5 9 34 13 34 5z m3679 -211 c0 -5 -14 28
-30 75 -16 46 -29 89 -28 95 0 5 14 -28 30 -75 16 -46 29 -89 28 -95z m-3654
45 c14 -40 23 -75 21 -77 -2 -2 -14 26 -26 64 -13 37 -25 75 -28 83 -3 8 -2
12 1 9 4 -3 18 -39 32 -79z m3725 -255 c34 -103 59 -190 56 -192 -2 -2 -29 74
-59 169 -67 212 -71 225 -63 217 3 -3 33 -91 66 -194z m-3655 55 c14 -40 23
-75 21 -77 -2 -2 -14 26 -26 64 -13 37 -25 75 -28 83 -3 8 -2 12 1 9 4 -3 18
-39 32 -79z m70 -206 c4 -20 -1 -15 -14 16 -11 25 -20 52 -20 60 1 19 26 -39
34 -76z m49 -138 c14 -37 26 -73 25 -80 0 -11 -39 85 -54 134 -14 47 3 15 29
-54z m3653 -91 c-4 -10 -38 91 -36 109 0 6 9 -14 20 -44 11 -30 18 -59 16 -65z
m-3582 -110 c15 -42 25 -78 22 -81 -3 -3 -15 25 -27 63 -13 37 -25 74 -28 81
-2 6 -2 12 1 12 2 0 17 -34 32 -75z m3664 -139 c0 -6 -11 20 -25 58 -13 39
-24 75 -23 80 0 6 11 -20 25 -58 13 -39 24 -75 23 -80z m-3595 -62 c15 -42 25
-78 23 -81 -3 -2 -15 26 -27 64 -13 37 -25 74 -28 81 -2 6 -2 12 1 12 2 0 17
-34 31 -76z m3645 -96 c1 -14 -56 -44 -66 -34 -2 2 10 9 28 15 26 9 30 15 25
33 -15 56 -16 71 -2 38 8 -19 15 -42 15 -52z m-111 -53 c-8 -8 -301 -105 -305
-101 -4 4 276 103 296 105 8 0 12 -1 9 -4z m-3453 -85 c14 -40 23 -75 21 -77
-2 -2 -14 26 -26 64 -13 37 -25 75 -28 83 -3 8 -2 12 1 9 4 -3 18 -39 32 -79z
m1433 23 c-15 -2 -42 -2 -60 0 -18 2 -6 4 27 4 33 0 48 -2 33 -4z m-168 -23
c-41 -11 -84 -19 -95 -19 -27 1 114 37 145 37 14 0 -9 -8 -50 -18z m287 4 c26
-9 53 -20 58 -26 6 -5 -3 -4 -20 2 -16 6 -52 18 -80 25 -27 8 -40 14 -28 14
12 1 44 -6 70 -15z m-410 -30 c-3 -3 -12 -4 -19 -1 -8 3 -5 6 6 6 11 1 17 -2
13 -5z m-40 -10 c-3 -3 -12 -4 -19 -1 -8 3 -5 6 6 6 11 1 17 -2 13 -5z m-40
-10 c-3 -3 -12 -4 -19 -1 -8 3 -5 6 6 6 11 1 17 -2 13 -5z m2013 2 c0 -6 -121
-46 -134 -45 -6 0 18 11 54 24 68 25 80 28 80 21z m-2110 -27 c-36 -10 -69
-18 -75 -18 -17 2 99 38 120 38 11 0 -9 -9 -45 -20z m808 -38 c54 -32 121 -71
150 -86 28 -16 50 -30 48 -33 -3 -2 -52 24 -111 57 -135 78 -202 121 -192 121
5 0 52 -26 105 -59z m-901 13 c-3 -3 -12 -4 -19 -1 -8 3 -5 6 6 6 11 1 17 -2
13 -5z m-802 -104 c14 -40 23 -75 21 -77 -2 -2 -14 26 -26 64 -13 37 -25 75
-28 83 -3 8 -2 12 1 9 4 -3 18 -39 32 -79z m626 49 c-47 -16 -86 -27 -88 -25
-5 5 137 54 157 54 8 0 -23 -13 -69 -29z m2109 17 c-20 -8 -51 -16 -70 -19
-23 -4 -17 0 20 13 61 21 105 26 50 6z m-125 -36 c-11 -5 -27 -9 -35 -9 -9 0
-8 4 5 9 11 5 27 9 35 9 9 0 8 -4 -5 -9z m-2085 -14 c0 -6 -123 -47 -127 -42
-2 2 22 13 54 24 62 22 73 24 73 18z m1960 -17 c-41 -10 -95 -20 -120 -23 -25
-3 0 5 55 18 55 13 109 24 120 24 11 0 -14 -8 -55 -19z m-540 -39 c8 -5 11
-10 5 -10 -5 0 -17 5 -25 10 -8 5 -10 10 -5 10 6 0 17 -5 25 -10z m363 3 c-7
-2 -21 -2 -30 0 -10 3 -4 5 12 5 17 0 24 -2 18 -5z m-1954 -7 c-8 -8 -183 -76
-186 -72 -2 2 36 20 84 39 81 33 113 43 102 33z m1894 -3 c-7 -2 -19 -2 -25 0
-7 3 -2 5 12 5 14 0 19 -2 13 -5z m-174 -19 c9 -8 -75 -2 -94 6 -12 5 1 6 35
3 30 -3 57 -7 59 -9z m89 9 c-16 -2 -40 -2 -55 0 -16 2 -3 4 27 4 30 0 43 -2
28 -4z m-2053 -87 c-27 -13 -54 -21 -59 -18 -4 2 14 13 40 22 69 25 78 23 19
-4z"/>
</g>
</svg>
